<svg xmlns="http://www.w3.org/2000/svg" width="1024" height="104" viewBox="0 0 1024 104" font-family="sans-serif" font-size="12" role="img" aria-label="instance graph of mi:default/backup-consumer">
<defs><marker id="arrow" viewBox="0 0 8 8" refX="8" refY="4" markerWidth="8" markerHeight="8" orient="auto"><path d="M0 0L8 4L0 8z" fill="#8a8fa0"/></marker></defs>
<rect width="1024" height="104" fill="#ffffff"/>
<text x="16" y="28" fill="#667085" font-size="11" font-weight="bold">MODULE</text>
<text x="280" y="28" fill="#667085" font-size="11" font-weight="bold">INSTANCE</text>
<text x="544" y="28" fill="#667085" font-size="11" font-weight="bold">COMPONENTS</text>
<text x="808" y="28" fill="#667085" font-size="11" font-weight="bold">OBJECTS</text>
<path d="M480 66 C512 66 512 66 544 66" fill="none" stroke="#8a8fa0" stroke-width="1.3" marker-end="url(#arrow)"><title>hasComponent: status.inventory entries, by component</title></path>
<path d="M280 66 C248 66 248 66 216 66" fill="none" stroke="#8a8fa0" stroke-width="1.3" marker-end="url(#arrow)"><title>instantiates: ModuleInstance spec.module</title></path>
<path d="M744 66 C776 66 776 66 808 66" fill="none" stroke="#8a8fa0" stroke-width="1.3" marker-end="url(#arrow)"><title>owns: status.inventory entries</title></path>
<g transform="translate(16 44)"><title>mod:testing.opmodel.dev%2Fmodules%2Foperator%2Fbackup_consumer%40v0/v0.1.0</title><rect width="200" height="44" rx="6" fill="#f8f9fb" stroke="#8a8fa0" stroke-width="1.5"/><rect width="5" height="44" rx="2" fill="#8a8fa0"/><text x="12" y="17" fill="#667085" font-size="10.5">module</text><text x="12" y="34" fill="#101828" font-weight="bold">testing.o…ckup_consumer@v0</text></g>
<g transform="translate(280 44)"><title>mi:default/backup-consumer</title><rect width="200" height="44" rx="6" fill="#f8f9fb" stroke="#2f8f4e" stroke-width="1.5"/><rect width="5" height="44" rx="2" fill="#2f8f4e"/><text x="12" y="17" fill="#667085" font-size="10.5">instance · Applied · Healthy</text><text x="12" y="34" fill="#101828" font-weight="bold">default/backup-consumer</text></g>
<g transform="translate(544 44)"><title>comp:mi/default/backup-consumer/data</title><rect width="200" height="44" rx="6" fill="#f8f9fb" stroke="#2f8f4e" stroke-width="1.5"/><rect width="5" height="44" rx="2" fill="#2f8f4e"/><text x="12" y="17" fill="#667085" font-size="10.5">component · Healthy</text><text x="12" y="34" fill="#101828" font-weight="bold">data</text></g>
<g transform="translate(808 44)"><title>obj:_/ConfigMap/default/backup-consumer-data-backup</title><rect width="200" height="44" rx="6" fill="#f8f9fb" stroke="#2f8f4e" stroke-width="1.5"/><rect width="5" height="44" rx="2" fill="#2f8f4e"/><text x="12" y="17" fill="#667085" font-size="10.5">ConfigMap · Healthy</text><text x="12" y="34" fill="#101828" font-weight="bold">backup-co…umer-data-backup</text></g>
</svg>
